<?xml version="1.0" standalone="no"?>
<!DOCTYPE svg PUBLIC "-//W3C//DTD SVG 20010904//EN"
 "http://www.w3.org/TR/2001/REC-SVG-20010904/DTD/svg10.dtd">
<svg version="1.0" xmlns="http://www.w3.org/2000/svg"
 width="500.000000pt" height="500.000000pt" viewBox="0 0 500.000000 500.000000"
 preserveAspectRatio="xMidYMid meet">
<metadata>
Created by potrace 1.16, written by Peter Selinger 2001-2019
</metadata>
<g transform="translate(0.000000,500.000000) scale(0.100000,-0.100000)"
fill="#000000" stroke="none">
<path d="M2169 4447 c-48 -15 -177 -72 -288 -127 -110 -55 -203 -100 -205
-100 -9 0 -99 -63 -163 -113 -60 -47 -229 -231 -269 -292 -10 -16 -27 -39 -37
-50 -18 -20 -97 -179 -135 -271 -62 -150 -97 -266 -121 -409 -15 -86 -13 -361
4 -475 37 -250 125 -515 206 -616 16 -20 29 -40 29 -43 0 -4 8 -16 18 -27 10
-10 28 -36 40 -56 13 -20 68 -79 124 -130 55 -51 107 -100 115 -108 114 -108
268 -210 319 -210 11 0 24 -4 29 -8 15 -13 129 -57 235 -92 200 -65 407 -80
585 -43 55 12 120 24 145 28 128 19 479 154 605 233 85 52 112 75 190 163 156
173 229 284 309 471 90 211 110 287 121 443 8 137 15 186 26 208 7 11 8 67 4
145 -14 271 -36 420 -76 516 -98 230 -159 328 -311 498 -115 128 -384 287
-668 396 -144 55 -362 91 -575 94 -162 3 -174 2 -256 -25z m487 -11 c191 -31
274 -55 449 -128 81 -34 226 -109 285 -148 30 -20 81 -54 114 -75 71 -47 165
-137 234 -227 29 -37 52 -70 52 -73 0 -3 12 -24 26 -46 47 -76 71 -124 99
-199 68 -183 81 -229 79 -292 0 -36 4 -66 10 -70 7 -5 7 -8 -2 -8 -8 0 -10 -5
-5 -12 4 -7 8 -20 8 -28 0 -8 4 -21 8 -27 5 -8 3 -13 -4 -13 -10 0 -10 -3 -2
-11 8 -8 8 -20 3 -35 -5 -13 -6 -24 -2 -24 4 0 7 -17 6 -37 -1 -21 2 -41 8
-44 5 -3 -4 -20 -21 -37 -26 -26 -28 -29 -9 -24 15 4 19 2 13 -8 -4 -7 -2 -16
6 -21 8 -5 9 -9 3 -9 -6 0 -10 -10 -10 -22 1 -13 -2 -29 -7 -35 -5 -7 -6 -13
-1 -13 5 0 2 -5 -6 -10 -13 -9 -13 -11 0 -20 12 -8 12 -10 1 -10 -11 0 -11 -3
-1 -15 7 -8 8 -15 4 -15 -5 0 -9 -17 -9 -37 1 -21 -3 -46 -7 -55 -6 -12 -5
-18 4 -18 9 0 9 -3 -2 -10 -13 -9 -13 -11 0 -20 12 -7 12 -10 1 -10 -7 0 -11
-6 -7 -15 3 -8 1 -15 -4 -15 -6 0 -9 -3 -9 -7 1 -5 1 -10 -1 -13 -9 -24 -8
-50 3 -51 6 0 1 -5 -13 -11 -17 -7 -20 -12 -11 -15 11 -5 11 -7 0 -14 -12 -7
-12 -9 0 -9 11 0 9 -4 -5 -15 -11 -8 -14 -15 -6 -15 16 0 16 -20 -1 -20 -16 0
-40 -38 -32 -50 4 -6 1 -10 -5 -10 -6 0 -10 -6 -8 -12 1 -7 -4 -24 -11 -38
-11 -18 -11 -25 -2 -28 9 -3 8 -7 -3 -16 -8 -6 -26 -40 -40 -76 -19 -48 -22
-66 -13 -72 8 -5 7 -8 -5 -8 -9 0 -20 -10 -24 -22 -3 -12 -10 -26 -15 -32 -18
-22 -74 -99 -85 -117 -6 -10 -22 -30 -37 -45 -15 -15 -27 -30 -27 -34 0 -4
-10 -10 -22 -14 -18 -5 -20 -8 -9 -15 11 -7 9 -10 -8 -16 -14 -4 -20 -12 -17
-21 3 -8 -1 -14 -9 -14 -8 0 -15 -7 -15 -15 0 -8 -7 -15 -16 -15 -10 0 -14 -6
-10 -15 4 -10 -1 -15 -15 -15 -11 0 -17 -4 -14 -10 3 -5 -1 -10 -10 -10 -19 0
-45 -23 -45 -39 0 -6 -5 -11 -10 -11 -6 0 -23 -11 -38 -26 -27 -25 -103 -64
-176 -90 -22 -8 -44 -18 -50 -23 -6 -5 -36 -16 -66 -25 -30 -10 -67 -24 -82
-32 -14 -8 -50 -13 -80 -13 -30 1 -63 -3 -74 -8 -10 -6 -50 -13 -87 -16 -37
-4 -73 -10 -79 -13 -15 -10 -31 -12 -156 -20 -97 -6 -136 -3 -312 27 -71 12
-172 40 -185 51 -5 4 -17 8 -27 8 -10 0 -18 3 -18 8 0 4 -15 13 -32 21 -18 8
-40 19 -48 26 -26 22 -91 30 -155 21 l-40 -6 43 11 43 10 -23 18 c-49 37 -99
63 -113 57 -10 -3 -12 0 -8 11 5 12 0 14 -23 11 -16 -3 -23 -3 -16 -1 6 3 12
11 12 18 0 9 -6 12 -17 8 -11 -4 -14 -3 -9 5 4 7 1 12 -9 12 -9 0 -13 5 -10
10 3 6 -3 10 -14 10 -12 0 -20 6 -19 13 2 7 -6 11 -22 9 -19 -1 -22 0 -10 8
13 8 12 11 -5 24 -11 8 -29 13 -40 10 -15 -4 -17 -3 -6 4 12 9 12 13 -2 26 -8
9 -26 16 -39 17 -22 0 -22 1 -3 9 15 7 8 9 -30 11 l-50 2 40 7 40 7 -48 2
c-27 0 -46 5 -43 10 3 5 -4 12 -17 16 -20 7 -19 8 11 12 45 6 40 19 -5 15 -37
-3 -39 -1 -98 84 -63 92 -127 205 -120 213 3 2 -8 27 -24 55 -30 54 -78 240
-105 406 -22 136 -10 424 24 574 38 170 182 516 242 580 10 11 18 23 18 27 0
4 30 45 66 91 168 211 226 254 597 439 65 33 122 59 128 59 6 0 23 6 37 14 29
15 134 53 167 59 43 8 317 -3 401 -17z"/>
<path d="M2327 4373 c-9 -2 -15 -8 -12 -13 3 -4 -2 -13 -10 -20 -15 -12 -16
-11 -19 12 -2 21 -23 19 -31 -4 -6 -19 -8 -20 -12 -5 -6 22 -31 23 -29 1 0 -9
-5 -19 -13 -22 -10 -3 -13 1 -9 15 4 16 1 19 -13 16 -10 -3 -17 -9 -14 -13 3
-4 -3 -14 -12 -21 -15 -12 -16 -11 -11 9 5 18 4 21 -6 13 -7 -6 -16 -8 -19 -4
-4 3 -7 -3 -7 -15 0 -14 -6 -22 -16 -22 -10 0 -14 6 -11 14 4 10 0 12 -14 9
-10 -3 -19 -12 -19 -19 0 -8 -5 -14 -11 -14 -6 0 -9 7 -5 15 4 12 2 13 -14 2
-11 -6 -20 -17 -20 -24 0 -7 -5 -13 -11 -13 -6 0 -8 8 -5 18 5 15 5 15 -6 2
-7 -9 -21 -14 -31 -12 -9 2 -20 -3 -23 -11 -3 -9 -14 -13 -27 -11 -12 2 -16 2
-9 -2 14 -7 16 -34 2 -34 -5 0 -10 5 -10 10 0 13 -37 13 -45 0 -3 -6 -26 -19
-51 -31 -25 -11 -48 -26 -51 -34 -3 -8 -12 -15 -21 -15 -8 0 -39 -18 -68 -40
-29 -22 -57 -40 -61 -40 -14 0 -34 -40 -27 -52 5 -7 0 -9 -12 -6 -22 6 -43
-11 -37 -29 2 -6 -1 -14 -6 -18 -6 -3 -11 1 -11 10 0 15 -2 15 -15 1 -8 -8
-12 -21 -9 -29 3 -8 1 -18 -5 -22 -7 -4 -11 3 -11 16 0 31 -23 9 -25 -23 -1
-17 -7 -22 -22 -20 -17 2 -20 -2 -16 -23 3 -15 1 -25 -6 -25 -6 0 -11 8 -11
18 0 14 -2 15 -9 2 -6 -8 -7 -18 -5 -22 11 -17 38 -6 70 27 48 51 52 43 5 -12
-66 -79 -95 -148 -95 -223 0 -36 4 -75 8 -87 7 -19 2 -25 -36 -43 -92 -47
-158 -152 -158 -255 0 -35 6 -69 14 -80 8 -12 15 -57 18 -110 5 -91 22 -150
41 -138 6 3 7 1 3 -5 -9 -16 9 -50 51 -94 20 -20 32 -41 29 -47 -10 -15 6 -14
29 3 32 23 29 83 -7 139 -46 71 -48 122 -8 225 17 45 29 92 27 104 -4 22 -4
21 -6 -2 0 -14 -15 -58 -31 -97 -24 -56 -31 -88 -31 -140 0 -70 12 -125 32
-149 7 -8 10 -17 7 -19 -2 -3 -15 14 -29 38 -20 35 -24 56 -24 123 0 45 -3 77
-7 70 -4 -6 -8 -40 -8 -76 0 -74 24 -135 67 -176 15 -15 21 -25 13 -22 -27 8
-91 112 -97 159 -5 33 -8 39 -13 24 -12 -33 -24 48 -16 108 4 29 8 66 10 82 1
17 9 41 16 55 12 22 11 24 -2 13 -12 -11 -14 -9 -13 7 1 11 5 23 10 27 4 5 5
2 0 -6 -5 -9 -4 -12 3 -7 7 4 12 14 12 22 0 8 4 14 8 14 4 0 29 20 54 45 35
33 54 45 77 45 36 0 37 3 14 30 -28 33 -93 23 -99 -15 -1 -9 -26 -39 -54 -66
-28 -27 -50 -54 -49 -61 5 -37 -2 -88 -11 -83 -17 10 -11 117 9 160 46 102
123 145 222 124 30 -6 58 -15 64 -20 5 -5 16 -9 25 -9 32 1 -22 29 -69 36 -63
9 -84 21 -51 28 14 3 48 7 75 9 l50 2 -35 11 -35 11 38 8 c51 10 137 1 176
-19 33 -17 54 -45 66 -86 6 -22 4 -20 -16 8 -13 19 -40 43 -59 54 l-35 20 26
-21 c43 -34 58 -65 69 -143 6 -40 13 -83 16 -95 2 -13 1 -23 -4 -23 -5 0 -9 6
-10 13 -3 51 -26 146 -42 178 -21 39 -83 90 -110 88 -8 0 -3 -6 11 -12 14 -7
34 -18 43 -26 20 -17 56 -84 56 -103 -1 -7 -7 1 -14 17 -7 17 -26 41 -42 55
-19 16 -23 18 -13 5 9 -11 22 -31 29 -45 10 -21 5 -18 -27 13 -48 45 -69 50
-26 5 30 -31 82 -113 96 -150 11 -32 -2 -19 -22 20 -10 20 -34 51 -52 67 -19
17 -26 21 -16 9 27 -33 20 -37 -16 -10 -48 37 -51 32 -6 -13 53 -53 50 -75 -3
-24 -48 46 -78 63 -105 62 -11 0 -4 -6 17 -16 43 -18 65 -37 101 -87 30 -41
37 -62 17 -50 -7 4 -3 -8 8 -27 27 -46 76 -69 144 -68 l55 1 -57 9 c-60 9 -90
20 -120 47 -28 24 -21 36 9 16 35 -22 209 -39 250 -23 26 10 27 9 10 -9 -16
-17 -16 -20 -2 -25 8 -4 23 -4 32 -1 15 5 15 3 -1 -10 -22 -18 -41 -21 -31 -6
4 6 -1 7 -11 3 -15 -5 -15 -7 0 -15 11 -6 27 -4 46 6 17 8 30 11 30 6 0 -7
-38 -28 -91 -49 -16 -7 -19 -10 -7 -10 9 -1 29 4 44 9 45 18 40 2 -7 -20 -24
-11 -37 -20 -29 -21 38 -2 -51 -28 -95 -27 l-50 1 57 6 c83 9 82 21 -3 22 -63
2 -68 3 -34 9 39 7 39 7 7 9 -41 1 -96 24 -140 57 -27 22 -31 23 -21 6 7 -11
25 -27 41 -37 16 -9 26 -21 23 -26 -4 -5 -1 -9 6 -9 7 0 10 -3 7 -6 -10 -9
-64 23 -91 55 -13 16 -28 27 -31 23 -4 -3 -5 0 -1 8 3 8 -10 48 -29 87 -34 71
-78 113 -116 113 -9 0 -3 -8 12 -18 34 -21 59 -71 60 -120 0 -46 -67 -187 -84
-176 -8 5 -9 2 -5 -10 4 -9 3 -15 -2 -11 -5 3 -12 -1 -15 -7 -6 -13 0 26 9 59
3 10 -1 5 -9 -12 -12 -26 -15 -27 -19 -10 -2 11 -2 9 0 -5 2 -14 7 -47 10 -74
l6 -49 13 29 c11 25 12 26 13 7 1 -12 4 -29 8 -39 4 -12 3 -15 -5 -10 -15 9
-15 -4 -1 -41 15 -39 14 -90 -2 -111 -13 -15 -12 -16 3 -4 9 7 20 27 24 44 5
25 8 28 15 16 13 -23 7 -67 -9 -73 -7 -3 -10 -9 -7 -15 4 -6 -1 -7 -11 -3 -12
4 -15 3 -10 -5 15 -24 -52 -13 -81 14 -22 20 -23 24 -8 19 11 -4 31 -9 45 -11
20 -3 18 -1 -7 8 -38 15 -65 38 -44 38 7 0 9 5 6 10 -13 22 -25 8 -25 -29 0
-30 6 -44 25 -60 39 -30 81 -36 113 -15 66 43 69 95 10 161 -14 15 -21 39 -24
80 l-3 58 14 -46 c8 -25 24 -54 36 -65 l21 -19 -21 40 c-11 22 -23 56 -26 75
l-5 35 10 -32 c6 -18 16 -35 22 -39 7 -5 9 -2 5 9 -3 8 -8 33 -12 54 -4 29 -1
25 15 -22 11 -33 22 -67 25 -76 2 -9 12 -34 23 -55 19 -37 28 -129 12 -119 -4
3 -11 -2 -14 -11 -4 -9 -2 -13 5 -8 7 4 10 1 7 -7 -3 -8 -12 -13 -21 -11 -8 1
-18 -2 -21 -7 -3 -5 2 -8 11 -7 9 0 18 -5 20 -12 3 -7 -1 -13 -8 -11 -8 1 -25
1 -39 -1 -23 -1 -24 -2 -5 -11 16 -7 14 -8 -10 -4 -16 3 -40 7 -53 10 -13 2
-30 9 -38 16 -8 6 -17 9 -21 6 -22 -23 100 -81 154 -74 19 3 50 -1 69 -9 19
-8 61 -13 101 -12 37 1 78 -2 91 -6 36 -12 27 -40 -22 -63 -55 -27 -112 -77
-133 -116 l-15 -31 -49 51 c-106 111 -191 154 -264 134 -52 -15 -80 -39 -99
-86 -19 -44 -20 -79 -5 -126 14 -43 41 -67 85 -75 30 -5 40 -2 65 22 36 34 37
65 4 123 -20 33 -23 46 -13 52 26 16 148 -79 148 -115 0 -12 -13 -62 -29 -111
-40 -125 -47 -186 -26 -222 19 -32 80 -72 146 -97 62 -22 84 -47 74 -83 -4
-15 -7 -41 -8 -57 l-2 -30 130 -17 c185 -24 227 -34 312 -75 70 -33 87 -43
115 -70 6 -5 25 -9 42 -7 29 2 30 2 6 -6 -23 -8 -24 -9 -3 -10 12 -1 25 -6 29
-13 5 -7 2 -8 -7 -3 -11 6 -12 5 -1 -6 6 -7 29 -13 50 -12 32 1 34 0 12 -7
-17 -5 -19 -8 -7 -9 9 -1 17 -5 17 -9 0 -8 66 -38 148 -67 84 -29 302 -30 302
-2 0 8 -33 12 -108 13 -106 2 -157 12 -229 49 -18 9 -38 13 -44 9 -8 -4 -9 -3
-5 4 4 7 1 12 -7 12 -8 0 -25 9 -39 20 -20 15 -28 16 -38 7 -7 -7 -10 -7 -7
-1 3 6 -3 17 -15 25 -11 8 -29 22 -39 33 -11 12 -24 16 -36 12 -9 -4 -14 -4
-11 0 12 11 -15 31 -37 27 -11 -2 -14 -1 -7 3 17 8 15 24 -3 24 -9 0 -26 11
-38 25 -12 14 -49 35 -82 47 -51 18 -83 21 -222 22 -180 1 -177 0 -150 65 l13
31 22 -21 c51 -47 149 -65 225 -40 20 7 37 19 37 27 0 19 -8 18 -55 -6 -22
-11 -52 -20 -67 -20 -65 0 -128 49 -128 100 0 12 -3 19 -7 17 -5 -3 -7 14 -7
36 1 27 0 32 -3 13 -4 -23 -7 -27 -15 -15 -10 14 -9 7 8 -61 6 -24 6 -24 -8
-5 -27 36 -42 99 -42 180 0 88 14 151 51 235 33 76 116 206 121 191 2 -6 -24
-70 -58 -141 -34 -71 -59 -133 -56 -138 3 -6 -1 -29 -9 -52 -8 -23 -15 -52
-14 -64 1 -23 2 -20 40 109 12 39 32 93 45 120 l23 50 2 -45 c3 -87 -3 -163
-17 -204 -10 -29 -12 -33 -9 -11 3 17 7 59 9 95 l5 65 -8 -55 c-5 -30 -16 -82
-24 -115 -23 -84 -31 -169 -20 -190 7 -12 10 -2 12 41 2 77 11 83 11 8 0 -69
17 -99 66 -120 48 -20 55 -17 14 7 -19 11 -26 17 -15 13 42 -16 254 -15 301 1
58 19 124 19 152 -1 22 -15 22 -17 7 -40 -8 -13 -13 -24 -10 -24 2 0 12 11 21
25 15 23 15 27 -1 51 -29 44 -70 55 -150 38 -50 -11 -70 -11 -76 -3 -4 6 -16
8 -28 4 -14 -4 -35 1 -59 15 l-37 22 21 -22 c12 -13 46 -28 75 -35 l54 -12
-57 -8 c-72 -9 -96 -3 -149 37 -65 51 -82 80 -85 144 -1 32 2 66 6 78 5 12 9
15 9 7 1 -8 4 -11 8 -8 3 4 19 -16 35 -43 34 -59 47 -67 18 -10 -26 51 -25 64
1 22 23 -35 38 -38 20 -4 -19 36 -12 36 23 0 18 -19 37 -44 40 -56 4 -11 21
-36 38 -54 39 -41 45 -61 15 -52 -17 5 -19 3 -11 -6 9 -9 22 -9 55 0 l44 12
-27 12 c-30 13 -98 91 -98 112 0 19 21 18 82 -7 115 -46 118 -46 171 -37 28 5
68 18 89 29 43 22 78 24 97 7 11 -11 11 -9 2 10 -6 12 -16 22 -21 22 -6 0 -10
5 -10 10 0 18 29 10 44 -12 22 -31 20 -74 -5 -99 -23 -23 -39 -18 -19 6 7 9
11 17 9 19 -2 2 -12 -7 -22 -20 -16 -22 -17 -25 -2 -30 21 -8 63 14 78 41 15
28 9 88 -9 98 -11 6 -13 17 -9 37 8 36 -10 102 -41 151 l-24 39 24 21 c23 20
23 22 8 60 -16 41 -46 72 -125 126 -58 40 -113 143 -77 143 6 0 9 3 9 8 -4 22
3 42 14 42 11 0 54 -41 49 -48 -4 -4 30 -66 46 -84 9 -12 30 -18 56 -19 30 0
36 -2 21 -8 -19 -8 -19 -8 2 -19 23 -12 40 -1 28 18 -3 5 6 12 20 16 14 3 25
10 25 15 0 5 6 9 13 9 8 0 12 12 12 33 -3 68 -2 67 -37 55 -29 -10 -30 -12
-13 -25 18 -12 17 -13 -6 -14 l-24 -1 25 -7 c20 -6 13 -9 -33 -14 -32 -4 -64
-5 -70 -1 -7 3 -3 -2 7 -10 11 -9 16 -16 10 -16 -20 0 -39 20 -53 58 -17 41
-36 66 -115 141 -25 24 -47 50 -47 58 -1 7 -3 16 -4 21 -1 4 -6 22 -10 41 l-8
34 -18 -24 c-10 -13 -19 -27 -19 -30 0 -16 -140 -241 -184 -297 -49 -62 -80
-80 -37 -21 47 64 109 155 129 189 73 129 107 185 114 188 4 2 8 23 8 47 0 49
19 76 49 68 19 -5 22 -18 8 -40 -9 -14 -1 -92 14 -140 9 -27 30 -50 97 -104
21 -17 14 16 -8 36 -11 10 -20 24 -20 31 0 7 -5 14 -10 16 -9 3 -20 35 -22 66
-1 6 -5 12 -9 12 -4 0 -7 9 -6 20 1 11 5 20 10 20 5 0 5 6 -1 13 -7 8 -7 18
-2 27 5 8 6 18 4 22 -3 4 3 8 13 8 15 0 18 -6 15 -39 -5 -46 23 -111 47 -111
14 0 14 -2 1 -10 -10 -6 -11 -10 -2 -10 6 0 12 -5 12 -10 0 -14 52 -59 68 -60
7 0 19 15 27 33 8 17 14 28 15 22 0 -5 4 -4 9 4 6 9 8 4 7 -16 -2 -16 -6 -35
-11 -42 -6 -10 -3 -11 13 -2 28 15 48 5 62 -30 16 -37 43 -52 95 -55 36 -2 37
-1 12 6 -16 5 -36 6 -45 3 -13 -4 -14 -3 -3 5 16 11 -3 27 -20 16 -8 -4 -9 1
-4 17 4 17 3 20 -3 10 -8 -11 -12 -10 -21 7 -14 26 -14 57 0 121 10 46 12 49
30 38 13 -8 19 -22 18 -47 -1 -32 -2 -33 -9 -10 -6 16 -7 5 -3 -30 9 -81 17
-105 38 -109 17 -3 18 -2 2 14 -22 21 -21 33 2 88 11 25 16 48 13 52 -7 8 13
3 81 -17 30 -9 37 -16 35 -32 -5 -33 -35 -49 -79 -43 -29 4 -39 2 -39 -9 0
-20 33 -34 77 -33 l38 2 -40 6 -40 7 35 8 c44 11 60 23 61 50 1 19 2 18 9 -4
8 -24 8 -24 9 7 1 23 -7 38 -30 57 -17 14 -37 26 -45 26 -8 0 -14 5 -14 10 0
6 15 4 38 -5 33 -13 35 -13 17 0 -11 9 -49 24 -85 35 -62 18 -124 55 -142 82
-5 9 -8 9 -8 2 0 -6 7 -17 15 -24 8 -7 15 -17 15 -23 0 -6 -9 -3 -20 8 -22 23
-41 93 -22 81 8 -5 12 0 12 13 0 11 5 23 10 26 15 9 12 56 -5 76 -14 15 -14
18 0 32 9 9 16 20 15 24 0 4 12 8 28 8 29 -1 29 -1 8 -60 -20 -53 -20 -109 0
-148 l17 -32 -23 20 -23 20 11 -22 c14 -26 66 -59 107 -68 l30 -7 -28 16 c-34
18 -50 35 -66 64 -11 20 -8 20 36 -8 26 -16 52 -30 57 -30 6 1 -6 10 -27 21
-51 27 -77 72 -77 132 0 71 32 118 107 161 23 12 7 -22 -22 -48 l-30 -27 35
16 35 16 -38 -33 c-42 -37 -51 -60 -11 -29 15 12 31 21 36 21 6 0 0 -9 -13
-19 -20 -16 -23 -27 -21 -71 1 -29 7 -59 12 -66 8 -8 8 -13 0 -16 -6 -2 -2
-12 10 -25 11 -12 20 -26 20 -31 0 -5 14 -15 30 -22 45 -19 107 -66 121 -92 9
-17 1 -13 -29 15 -23 20 -48 37 -55 37 -6 0 3 -9 21 -20 17 -11 32 -25 32 -31
0 -7 -10 -4 -22 7 l-23 19 19 -22 c10 -12 23 -21 30 -20 15 3 20 -61 5 -79 -6
-8 -7 -14 -1 -14 14 0 29 22 35 50 4 25 4 25 6 -2 0 -16 -8 -37 -20 -49 -11
-11 -18 -23 -15 -27 11 -11 37 24 46 61 10 46 -17 105 -60 130 -37 22 -38 32
-2 49 31 15 44 58 17 58 -9 0 -14 -4 -10 -9 12 -20 -26 -41 -73 -40 l-47 2 47
6 c27 4 53 12 60 19 9 9 3 10 -25 5 -43 -7 -107 4 -107 18 0 6 7 6 19 -1 11
-5 37 -9 58 -9 l38 2 -40 7 c-39 8 -39 8 13 7 56 -1 78 12 68 38 -5 15 -8 15
-24 -5 -16 -20 -20 -20 -57 -8 -29 9 -41 19 -43 36 -2 12 1 22 7 22 5 0 22 11
38 24 16 14 43 28 59 32 49 12 83 45 115 110 29 59 46 134 30 134 -4 0 -6 14
-5 30 1 17 -3 30 -9 30 -5 0 -2 9 8 20 20 22 8 28 -15 8 -8 -7 -4 -1 10 15 31
35 36 61 9 47 -24 -13 -25 -21 -1 -13 14 5 15 3 5 -8 -10 -10 -16 -10 -25 -1
-9 9 -8 15 8 26 10 8 19 19 19 25 0 6 5 11 10 11 12 0 16 -68 4 -75 -14 -9 2
-35 21 -35 10 0 23 7 30 15 24 29 73 59 134 81 34 13 54 23 46 23 -8 0 -33 -6
-55 -14 -50 -18 -55 -18 -31 0 23 17 14 20 -17 4 l-22 -10 21 18 c12 10 30 24
40 31 17 11 17 11 -3 2 -12 -5 -23 -10 -25 -10 -2 0 -4 25 -5 56 -1 52 0 54
13 35 18 -25 50 -43 81 -47 29 -3 29 1 -2 38 -14 16 -25 42 -25 56 l1 27 15
-25 15 -25 -4 28 c-5 31 6 41 40 40 43 -2 48 -5 18 -13 -29 -7 -29 -8 10 -10
l40 -3 -40 -7 -40 -7 35 -3 35 -3 -35 -7 -35 -7 45 -3 45 -3 -40 -7 -40 -7 43
-2 c26 0 41 -5 37 -11 -3 -6 4 -14 17 -19 20 -9 18 -10 -17 -12 -35 -2 -36 -3
-10 -6 53 -8 52 -23 0 -24 -42 -1 -45 -2 -20 -8 30 -7 29 -7 -12 -14 -64 -11
-60 -25 5 -16 33 5 61 4 68 -2 6 -5 20 -7 30 -3 16 5 16 4 4 -5 -12 -9 -11
-11 10 -12 20 -1 18 -3 -10 -9 l-35 -7 40 -2 c22 -1 47 -6 55 -12 13 -9 12
-10 -3 -5 -11 3 -16 2 -12 -4 3 -6 14 -10 23 -10 15 0 15 -2 2 -10 -12 -8 -12
-10 5 -10 17 0 17 -2 5 -10 -12 -8 -12 -10 5 -10 17 0 17 -2 5 -10 -12 -8 -12
-10 5 -10 17 0 17 -2 5 -10 -12 -8 -12 -10 5 -11 l20 0 -20 -8 c-19 -8 -18 -9
5 -13 25 -5 25 -5 -2 -7 -17 0 -28 -7 -28 -15 0 -8 -6 -17 -12 -19 -7 -3 -4
-6 7 -6 16 -1 17 -3 5 -10 -8 -6 -26 -7 -41 -4 -16 3 -30 0 -34 -8 -5 -7 -4
-10 1 -6 5 3 25 2 44 -3 l35 -8 -45 -2 -45 -3 35 -7 35 -7 -32 -2 c-18 0 -56
-10 -85 -21 -29 -11 -55 -20 -58 -20 -10 1 35 24 70 37 30 10 32 12 10 12 -25
1 -124 -51 -115 -60 7 -8 -134 -81 -144 -75 -5 3 -33 -5 -62 -19 -30 -14 -43
-23 -29 -19 14 3 38 12 53 20 15 7 36 10 45 7 13 -6 11 -9 -13 -20 l-30 -14
30 6 c17 3 35 12 40 18 18 22 183 87 201 80 11 -4 15 -3 11 4 -7 11 22 28 31
18 3 -3 -1 -5 -9 -6 -8 0 -6 -4 6 -9 17 -7 17 -9 3 -9 -10 -1 -18 -6 -18 -12
0 -5 -4 -8 -9 -4 -5 3 -28 -2 -51 -11 -36 -15 -39 -18 -24 -29 16 -11 13 -14
-22 -25 -21 -7 -43 -17 -49 -22 -5 -5 3 -4 18 1 47 18 55 12 12 -9 -22 -11
-30 -18 -17 -16 12 2 20 0 16 -5 -3 -5 -11 -9 -19 -9 -8 0 -22 -9 -32 -19 -10
-11 -34 -24 -53 -30 -27 -8 -29 -10 -7 -7 15 2 27 -1 27 -7 0 -5 9 -7 20 -4
12 3 18 1 14 -5 -4 -5 -21 -8 -39 -6 -20 2 -31 0 -28 -6 4 -6 -1 -6 -13 -2
-10 5 -44 9 -74 11 -30 2 -47 1 -37 -2 9 -2 17 -11 17 -20 0 -16 29 -15 73 2
10 4 17 3 17 -4 0 -6 -3 -10 -7 -10 -26 4 -35 -4 -14 -12 15 -6 27 -6 30 -1 8
13 118 -3 138 -20 10 -7 14 -8 10 -1 -4 6 -4 13 0 16 5 2 1 2 -7 0 -11 -3 -12
-1 -4 7 12 12 76 2 68 -11 -3 -5 1 -9 8 -10 7 0 4 -4 -7 -9 -14 -6 -16 -9 -5
-10 8 -2 2 -6 -15 -10 -22 -6 -13 -8 36 -7 l66 2 2 78 c3 105 8 116 71 160 13
9 19 17 12 17 -7 0 -10 4 -7 10 4 6 11 5 20 -3 9 -8 10 -16 3 -24 -7 -9 5 -16
46 -28 56 -16 86 -36 42 -28 -13 3 -27 0 -31 -6 -3 -6 -3 -10 2 -9 18 5 74
-12 68 -22 -3 -5 0 -10 7 -10 9 0 9 -3 -2 -10 -13 -8 -12 -10 3 -10 10 0 16
-4 12 -10 -3 -5 -13 -6 -22 -3 -15 6 -16 5 -3 -9 8 -8 21 -13 27 -11 7 3 13 0
13 -6 0 -6 -8 -11 -17 -12 -12 -1 -10 -4 7 -9 17 -5 19 -8 8 -9 -26 -1 -22
-37 5 -45 17 -5 19 -8 8 -15 -11 -7 -11 -9 0 -14 10 -4 9 -6 -3 -6 -10 -1 -18
-9 -18 -18 0 -11 3 -14 8 -7 4 7 15 8 27 3 l20 -8 -20 -1 c-15 -1 -13 -4 10
-12 27 -10 28 -12 10 -19 -18 -7 -17 -8 5 -8 20 -1 22 -3 10 -11 -13 -8 -12
-10 3 -10 10 0 15 -4 12 -10 -3 -5 -1 -10 5 -10 6 0 18 -7 26 -15 12 -12 12
-15 2 -16 -7 0 -4 -4 7 -9 19 -8 19 -9 -5 -17 l-25 -7 30 -7 30 -7 -27 -1
c-25 -1 -33 -10 -29 -33 2 -12 -17 -9 -25 3 -5 8 -10 6 -16 -5 -7 -12 -5 -22
4 -33 9 -12 9 -15 1 -9 -8 4 -13 2 -14 -6 0 -7 -4 -3 -9 9 -12 30 -52 39 -103
23 -60 -19 -70 -20 -87 -10 -11 7 -12 13 -2 34 10 22 9 26 -4 26 -8 0 -13 -4
-9 -10 3 -5 -6 -17 -20 -26 -13 -9 -22 -20 -19 -25 3 -5 -5 -13 -18 -18 -13
-6 -17 -10 -10 -10 7 -1 22 4 34 10 11 6 22 9 24 6 3 -2 -14 -14 -38 -26 -24
-11 -35 -21 -25 -21 10 0 31 7 46 15 23 11 35 12 62 3 19 -6 40 -13 48 -15 7
-2 11 -10 8 -17 -3 -8 -1 -17 6 -20 9 -3 8 -5 -1 -5 -8 -1 -10 -6 -5 -13 17
-29 6 -44 -57 -75 -36 -18 -66 -33 -67 -33 -2 0 -3 9 -3 20 0 13 -5 18 -15 14
-8 -4 -12 -10 -9 -15 3 -5 -2 -12 -10 -15 -9 -3 -14 -10 -11 -14 3 -5 -7 -13
-22 -18 -27 -10 -27 -10 -4 -11 31 -1 22 -11 -15 -16 -41 -5 -42 -6 -14 -15
l25 -8 -27 -1 c-16 -1 -28 -5 -28 -10 0 -4 12 -6 28 -4 21 4 24 2 12 -6 -8 -6
-24 -11 -35 -12 -19 -1 -19 -2 -1 -6 15 -4 16 -7 5 -15 -10 -7 -6 -8 14 -4 15
4 27 3 27 -2 0 -21 30 -6 35 18 10 44 62 90 102 90 20 0 32 -4 28 -10 -3 -5 3
-10 14 -10 11 0 22 -4 25 -9 3 -4 -7 -7 -22 -5 -15 2 -19 1 -10 -2 27 -8 18
-41 -12 -41 -43 -1 -69 -7 -64 -15 3 -4 0 -8 -6 -8 -6 0 -8 -4 -5 -10 3 -5 -1
-10 -9 -10 -9 0 -16 -5 -16 -10 0 -6 -12 -8 -27 -5 l-28 5 27 -13 28 -13 -29
-10 c-47 -18 -35 -39 23 -39 42 0 51 -3 50 -17 -1 -10 2 -18 7 -18 5 0 9 6 10
13 0 6 5 0 11 -16 5 -15 13 -25 17 -23 13 8 6 -41 -8 -58 -8 -10 -32 -26 -53
-37 -21 -11 -38 -21 -38 -24 0 -7 51 16 85 39 l30 20 -25 -28 c-22 -24 -55
-44 -100 -59 -12 -4 -11 -6 3 -6 10 -1 33 6 53 14 19 8 32 10 29 5 -6 -10
-100 -42 -135 -46 -14 -1 -34 -5 -45 -7 -12 -3 -48 -7 -80 -10 -33 -3 -49 -3
-35 -1 14 3 30 10 35 16 7 8 6 9 -2 4 -24 -13 -414 -23 -434 -10 -6 3 -15 0
-20 -7 -13 -21 -11 -33 5 -20 14 11 244 7 256 -5 3 -4 -47 -4 -109 -2 -114 3
-113 -2 4 -21 l60 -10 -67 3 c-37 1 -64 -2 -62 -6 3 -4 16 -8 28 -8 13 0 35
-12 49 -26 15 -15 31 -23 38 -18 7 4 9 3 5 -4 -3 -5 0 -13 6 -15 7 -3 0 -6
-16 -6 -24 -1 -27 -3 -16 -16 7 -8 20 -15 29 -16 12 0 11 -2 -4 -9 l-20 -9 20
0 c17 -1 17 -3 5 -11 -13 -9 -13 -10 0 -10 9 -1 5 -6 -10 -15 -22 -13 -23 -14
-5 -15 l20 -1 -20 -8 -20 -8 20 -6 c19 -5 19 -5 -2 -12 -13 -4 -21 -11 -18
-15 3 -4 -7 -11 -23 -15 -25 -7 -25 -8 -7 -15 18 -8 18 -9 -5 -9 -14 -1 -32
-6 -40 -11 -11 -7 -7 -10 20 -11 19 -1 -1 -5 -45 -9 -47 -4 -83 -3 -86 3 -4 5
-9 -5 -11 -23 -5 -34 -5 -34 57 -46 l40 -7 -50 -13 -50 -12 40 -2 c39 -2 39
-3 10 -10 -26 -6 -28 -8 -11 -15 18 -8 18 -9 -5 -17 -19 -7 -21 -11 -9 -18 12
-8 10 -10 -8 -10 -13 0 -21 -4 -17 -9 3 -5 -3 -12 -12 -14 -10 -3 -1 -5 19 -6
31 -1 43 5 69 33 17 19 40 53 51 76 11 22 34 48 50 56 58 30 85 72 103 164 27
130 54 150 197 150 96 0 219 26 266 56 12 8 36 33 52 56 52 71 35 148 -48 221
-17 16 -19 23 -10 43 11 24 19 28 52 24 10 -1 30 4 43 11 28 15 32 72 7 107
-9 13 -14 24 -13 26 2 1 17 10 32 20 15 9 33 28 39 41 10 21 7 28 -16 52 -18
18 -26 35 -24 52 3 25 5 26 60 23 64 -3 104 12 137 54 30 38 26 70 -14 128
-33 49 -60 109 -90 204 -8 23 -31 72 -52 108 -21 36 -43 75 -50 87 -7 13 -12
57 -11 105 0 78 -2 89 -38 158 -21 40 -57 96 -81 123 -24 27 -50 65 -58 84
l-14 33 32 0 c18 0 47 3 66 6 77 15 112 -28 87 -108 l-16 -49 6 42 c7 54 -2
84 -23 76 -11 -4 -14 -2 -9 5 4 7 2 12 -3 12 -16 0 -13 -16 4 -30 8 -7 15 -22
15 -34 0 -19 -1 -19 -13 4 -9 18 -22 26 -47 28 l-35 3 35 -18 c28 -15 37 -27
48 -68 20 -73 37 -88 88 -80 36 5 42 3 47 -14 3 -11 0 -22 -7 -25 -6 -2 -2 -5
10 -5 26 -1 54 28 54 56 0 31 -43 55 -86 47 l-35 -6 6 58 c7 57 6 60 -25 89
-26 25 -39 30 -78 29 l-47 0 23 45 c23 46 25 87 6 149 -10 33 8 27 35 -13 13
-19 30 -35 37 -35 8 0 14 -9 14 -20 0 -11 6 -20 13 -20 6 0 34 -32 61 -70 27
-39 55 -70 63 -70 8 0 11 -5 8 -11 -4 -5 1 -19 11 -30 9 -10 14 -19 9 -19 -4
0 -1 -7 6 -16 7 -9 14 -23 15 -32 2 -8 6 -18 11 -21 12 -9 33 -47 89 -166 40
-84 45 -99 45 -127 0 -10 4 -20 9 -23 4 -3 6 -14 3 -25 -3 -12 0 -20 6 -20 7
0 9 -5 6 -10 -4 -6 -1 -17 5 -25 6 -8 9 -18 6 -24 -9 -14 22 -41 39 -34 17 6
18 59 2 80 -5 7 -6 16 -3 21 3 6 -2 27 -11 48 -9 22 -17 44 -18 49 -1 10 -11
36 -26 70 -5 11 -13 31 -19 45 -5 14 -14 32 -19 40 -5 8 -19 35 -32 60 -12 25
-25 47 -28 50 -11 9 -31 50 -31 62 0 7 -12 27 -26 43 -14 17 -23 24 -19 18 8
-16 -3 -35 -15 -28 -6 3 -5 16 0 30 7 19 4 30 -20 57 -16 18 -30 38 -30 43 0
6 -13 22 -30 35 -16 14 -29 31 -30 38 0 6 -4 12 -9 12 -5 0 -8 -7 -7 -16 0 -9
-5 -19 -12 -21 -10 -4 -12 3 -6 32 6 32 4 37 -15 42 -11 3 -21 13 -22 22 0 10
-2 11 -6 4 -8 -22 -23 -14 -23 12 0 15 -7 28 -17 32 -10 4 -21 11 -25 17 -5 7
-8 7 -8 -1 0 -24 -16 -13 -27 18 -7 18 -17 29 -25 27 -7 -3 -19 2 -26 11 -9
12 -12 12 -10 2 2 -7 -3 -16 -9 -18 -8 -3 -13 3 -13 15 0 11 -8 26 -17 33 -9
8 -14 9 -10 3 4 -7 -1 -18 -10 -25 -15 -12 -16 -11 -11 8 6 24 -6 41 -17 23
-4 -6 -11 -8 -16 -4 -5 3 -6 10 -3 16 4 7 2 8 -4 4 -7 -4 -12 -1 -12 8 0 8 -4
17 -9 20 -5 3 -8 -2 -7 -11 0 -9 -5 -18 -11 -20 -8 -3 -13 4 -13 15 0 11 -6
25 -14 31 -11 9 -14 8 -12 -5 0 -9 -5 -19 -12 -21 -7 -3 -13 1 -11 8 1 8 1 21
0 29 -1 12 -4 12 -12 -2 -14 -24 -25 -22 -33 4 -4 18 -8 20 -17 11 -9 -9 -9
-15 0 -27 18 -21 -6 -32 -28 -12 -10 9 -21 13 -26 9 -4 -5 -5 -3 -1 4 4 7 12
10 19 7 17 -6 17 29 0 45 -8 7 -13 8 -13 1 0 -20 -28 -10 -34 13 -6 20 -7 21
-17 4 -6 -9 -15 -15 -20 -12 -5 4 -7 10 -4 15 8 13 -26 21 -41 9 -11 -9 -14
-8 -14 2 0 8 -5 21 -10 29 -8 13 -11 12 -25 -5 -17 -20 -17 -20 -10 0 5 15 3
17 -6 8 -17 -17 -3 -46 20 -40 22 5 37 -19 18 -27 -7 -2 4 -5 23 -6 l35 -2
-30 -8 c-26 -7 -24 -8 20 -9 28 -1 57 -6 65 -11 11 -8 7 -9 -15 -4 -23 4 -26
3 -15 -5 11 -8 2 -11 -40 -12 -46 0 -116 -16 -85 -18 6 -1 3 -6 -5 -11 -11 -7
-7 -9 15 -6 17 2 24 1 16 -1 -12 -4 -12 -6 0 -14 10 -6 8 -9 -10 -9 -32 0 -90
-45 -107 -84 -11 -26 -13 -28 -14 -9 0 30 33 84 62 100 18 9 19 12 6 13 -9 0
-20 -4 -23 -10 -3 -5 -11 -10 -17 -10 -6 0 -5 7 3 18 13 15 12 16 -3 3 -10 -7
-15 -17 -12 -22 3 -5 1 -9 -5 -9 -16 0 -29 -62 -19 -88 9 -26 10 -96 1 -72 -3
8 -14 23 -25 34 -12 14 -18 35 -18 69 0 55 10 78 54 126 20 22 24 30 11 23
-16 -9 -22 -5 -38 20 -10 17 -21 28 -24 24 -3 -3 0 -12 6 -20 15 -17 7 -36
-15 -36 -8 0 -14 -4 -14 -10 0 -5 9 -10 20 -10 11 0 20 -1 20 -3 0 -1 -9 -20
-20 -42 -11 -22 -20 -47 -20 -57 0 -10 -5 -18 -11 -18 -5 0 -8 -4 -4 -9 3 -5
-4 -13 -16 -16 -17 -6 -19 -9 -8 -16 20 -13 1 -11 -23 2 -15 8 -19 8 -14 0 4
-6 3 -11 -3 -11 -6 0 -15 9 -21 19 -7 15 -3 31 19 73 17 32 33 52 42 49 8 -2
23 -5 34 -8 19 -4 19 -3 2 9 -10 7 -27 20 -38 29 -19 16 -19 17 6 33 14 9 31
14 37 10 7 -4 8 -3 4 4 -11 18 -46 14 -65 -5 -21 -24 -42 -23 -63 3 -13 16
-38 25 -100 35 -100 16 -146 14 -195 -6 -21 -9 -59 -17 -84 -19 -49 -2 -108
-37 -129 -77 -11 -20 -11 -20 -28 1 -12 15 -29 21 -59 22 -24 0 -40 4 -37 9 3
5 14 9 25 9 10 0 19 5 19 10 0 6 9 10 20 10 11 0 23 6 26 14 3 8 14 11 28 9
13 -3 27 0 30 6 4 6 16 11 26 11 10 0 20 3 22 8 5 13 179 45 268 49 168 8 201
8 206 3 3 -3 27 -6 52 -8 77 -4 96 -7 110 -16 7 -4 16 -5 19 -2 3 3 13 1 22
-4 24 -12 46 4 37 26 -7 18 -8 18 -22 0 -11 -16 -14 -17 -14 -4 0 8 -6 21 -14
27 -11 9 -14 8 -12 -5 0 -9 -5 -19 -13 -22 -10 -3 -12 0 -8 11 8 22 -23 31
-38 10 -11 -15 -13 -15 -19 5 -8 25 -26 30 -26 8 0 -8 -5 -18 -12 -22 -7 -5
-9 -1 -6 12 6 24 -30 31 -39 8 -3 -7 -9 -11 -14 -8 -5 3 -7 9 -4 14 6 10 -34
25 -42 16 -4 -3 -1 -6 5 -6 6 0 9 -7 5 -17 -6 -14 -7 -13 -14 5 -6 17 -16 20
-54 20 -25 -1 -41 -4 -34 -8 6 -4 8 -13 5 -19 -10 -15 -26 -14 -26 3 0 8 -7
17 -16 20 -17 6 -19 6 -47 -1z m116 -129 c33 -5 47 -12 50 -25 7 -27 -2 -29
-48 -13 -45 15 -83 18 -45 3 13 -6 39 -21 57 -35 19 -14 33 -20 33 -13 0 7 3
9 7 6 3 -4 12 2 20 13 8 11 21 20 29 20 12 0 5 -19 -26 -77 -45 -85 -56 -100
-66 -90 -3 3 5 31 20 62 14 30 21 53 16 50 -5 -3 -12 0 -16 6 -3 6 -30 22 -58
35 -56 26 -112 29 -166 10 -33 -13 -32 -13 32 -8 36 2 79 1 95 -3 24 -7 20 -9
-33 -16 -95 -12 -179 -59 -235 -132 l-33 -42 45 41 c76 70 234 127 290 105 20
-8 14 -10 -36 -12 l-60 -2 45 -7 45 -7 -50 -3 -50 -3 45 -5 45 -5 -40 -14
c-34 -11 -35 -13 -9 -9 18 3 45 7 60 10 18 4 14 0 -11 -8 -22 -8 -56 -15 -75
-16 -19 -1 -46 -6 -60 -11 -19 -6 -12 -7 25 -4 l50 4 -54 -14 c-67 -17 -131
-45 -131 -57 0 -5 -5 -8 -11 -6 -6 2 -10 7 -10 11 1 4 3 6 4 5 8 -6 36 25 31
33 -8 14 -66 -31 -60 -47 3 -7 0 -16 -7 -20 -7 -4 -9 -4 -5 1 4 4 1 17 -7 29
-21 29 -19 40 13 78 l27 33 -27 -17 c-21 -14 -26 -14 -24 -3 1 8 6 18 11 22 4
5 4 1 0 -7 -8 -13 -7 -13 8 -1 21 17 22 16 -13 17 -19 1 -28 -2 -23 -10 3 -6
-5 0 -18 13 -31 33 -31 58 2 82 34 24 103 54 95 40 -4 -5 -1 -11 6 -14 7 -2 3
-2 -9 -1 -12 2 -25 -1 -29 -8 -5 -7 -3 -8 6 -3 7 4 -6 -11 -29 -34 -24 -24
-40 -45 -37 -48 3 -4 17 5 30 20 70 76 231 120 369 101z m-514 -70 c2 -2 -9
-4 -26 -4 -78 0 -142 -59 -129 -120 5 -28 3 -30 -37 -40 -96 -23 -155 -43
-204 -70 -29 -15 -53 -25 -53 -21 0 4 19 24 43 44 54 47 55 48 100 72 20 11
37 23 37 27 0 5 5 8 10 8 11 0 24 10 61 43 10 9 21 17 24 17 8 0 69 44 73 51
3 7 94 0 101 -7z m1105 -16 c-22 -11 -46 -29 -53 -39 -10 -17 -6 -16 26 5 21
14 52 28 68 31 27 5 26 4 -10 -16 -58 -31 -86 -65 -93 -111 -4 -30 -2 -39 6
-34 7 4 12 17 12 29 0 29 28 69 42 61 6 -4 8 -2 5 3 -8 13 40 46 56 39 7 -2 3
-5 -7 -5 -11 -1 -16 -4 -13 -8 8 -8 -43 -64 -52 -58 -4 2 -8 -4 -9 -13 -6 -59
-20 -114 -22 -92 l-2 25 -8 -25 -7 -25 -6 25 c-4 14 -8 39 -10 55 -3 23 -4 20
-6 -12 0 -23 -5 -45 -11 -48 -12 -7 -24 39 -16 60 9 26 -20 17 -32 -10 -11
-24 -8 -118 5 -138 3 -6 1 -7 -5 -3 -7 4 -15 26 -19 49 l-7 42 -7 -35 c-6 -33
-6 -32 -8 13 0 27 6 62 15 79 9 18 11 27 4 23 -7 -4 -18 -21 -26 -39 -10 -23
-13 -26 -14 -11 0 31 29 66 51 63 15 -2 27 10 47 47 20 38 38 55 72 72 25 12
52 22 60 22 8 0 -3 -9 -26 -21z m-1079 -7 c11 -5 21 -13 21 -20 1 -6 2 -12 4
-13 2 -4 10 -38 14 -65 2 -11 -4 -36 -12 -55 -8 -18 -15 -36 -14 -39 1 -4 -22
-19 -51 -34 -29 -16 -54 -32 -57 -36 -3 -5 -37 -24 -75 -43 -72 -36 -150 -94
-140 -104 3 -3 -3 -15 -12 -26 l-18 -21 24 20 c13 11 26 20 30 19 3 0 20 8 36
19 17 10 23 17 14 14 -9 -3 -22 -1 -30 4 -9 6 -2 8 22 5 19 -3 42 0 50 5 11 8
9 9 -7 5 -14 -4 -21 -2 -21 7 0 8 38 28 86 48 47 18 114 48 149 65 51 25 60
28 45 11 -10 -11 -45 -33 -78 -49 -54 -27 -54 -33 0 -13 48 18 -22 -23 -85
-50 -111 -47 -150 -67 -145 -75 3 -4 -9 -13 -25 -20 -16 -7 -35 -18 -41 -26
-16 -20 -38 -17 -34 4 1 9 0 11 -2 5 -3 -7 -9 -13 -15 -13 -5 0 -7 -7 -4 -16
3 -8 2 -12 -4 -9 -6 3 -10 20 -10 36 0 17 4 28 10 24 6 -4 7 1 3 11 -4 11 -3
15 5 10 11 -7 36 27 26 37 -3 3 0 8 7 13 8 4 10 3 5 -4 -13 -22 9 -12 44 20
29 26 30 29 7 14 -16 -10 -31 -16 -33 -14 -6 6 104 80 160 108 27 14 67 42 88
64 40 41 54 72 16 36 -13 -12 -40 -31 -61 -41 -21 -11 -35 -23 -33 -28 3 -4
-11 -15 -30 -25 l-36 -17 21 27 c24 31 28 74 7 74 -8 0 -17 -4 -20 -9 -3 -4
-33 -14 -67 -21 -90 -19 -223 -115 -263 -188 -5 -9 10 4 33 30 48 53 170 130
130 81 -12 -14 -9 -13 16 2 41 26 43 29 16 20 -15 -4 -21 -3 -17 3 3 5 15 12
26 15 12 3 18 1 14 -5 -4 -7 5 -8 27 -3 30 5 28 3 -16 -19 -27 -13 -47 -25
-44 -25 4 -1 -24 -32 -62 -70 -60 -60 -69 -74 -69 -105 0 -37 -13 -48 -24 -20
-9 23 -8 42 2 27 5 -8 8 2 8 24 l0 37 -18 -40 c-11 -23 -16 -51 -13 -69 4 -22
2 -26 -5 -15 -9 13 -10 13 -11 0 -1 -8 -5 1 -10 20 -7 32 -7 30 -6 -16 2 -51
2 -51 -21 -36 -20 13 -22 20 -16 61 21 157 133 259 339 311 128 32 123 30 103
41 -40 22 -12 102 42 122 22 8 82 7 105 -2z m915 -31 l-35 -7 35 -3 c26 -2 29
-4 12 -7 -20 -4 -21 -7 -10 -21 7 -9 8 -13 3 -10 -6 4 -17 3 -25 -3 -12 -7 -9
-9 10 -9 l25 -1 -26 -14 c-49 -27 -65 -103 -34 -167 l16 -33 -21 24 c-28 32
-35 68 -23 114 7 26 7 35 0 28 -19 -19 -20 -104 0 -142 19 -35 19 -35 -2 -34
-32 2 -79 87 -79 143 1 99 51 152 144 150 45 -1 45 -1 10 -8z m350 -21 c8 -1
-1 -5 -20 -9 l-35 -7 42 -2 c23 0 45 -5 48 -11 3 -5 17 -10 30 -10 14 0 39
-14 57 -30 l33 -31 -35 21 c-35 20 -69 29 -40 10 20 -13 4 -12 -43 1 -45 12
-108 3 -86 -13 11 -7 9 -9 -7 -5 -12 2 -21 -1 -21 -8 0 -7 11 -10 26 -8 24 3
23 2 -4 -8 -16 -6 -41 -21 -55 -33 l-25 -21 19 23 c11 12 16 22 11 22 -4 0 -2
7 5 15 23 27 -6 15 -35 -15 -15 -16 -34 -51 -41 -77 -9 -34 -13 -41 -14 -23
-7 108 21 173 90 207 25 13 54 21 65 18 11 -3 27 -5 35 -6z m-662 -99 c2 -6 8
-8 12 -5 13 8 -3 -41 -38 -117 -23 -50 -27 -69 -18 -78 8 -9 6 -11 -11 -5 -26
7 -28 3 -11 -28 10 -20 10 -21 -5 -9 -9 8 -18 23 -20 35 -2 12 -2 9 1 -8 2
-16 5 -51 6 -76 1 -32 4 -42 12 -35 18 19 23 43 11 55 -9 10 -9 12 2 9 9 -2
17 10 22 32 8 36 72 196 82 207 10 10 64 -17 64 -32 0 -7 -7 -11 -15 -7 -10 3
-13 1 -8 -6 4 -7 3 -12 -2 -12 -5 0 -8 -12 -6 -26 1 -15 -2 -24 -9 -21 -20 6
-87 -104 -106 -175 -8 -27 -18 -48 -22 -48 -5 0 -9 -10 -9 -22 0 -18 -2 -20
-9 -9 -8 12 -11 9 -16 -12 -4 -15 -11 -25 -15 -22 -5 3 -4 20 1 38 13 44 11
121 -3 152 -8 19 -8 34 0 62 6 20 7 32 2 27 -4 -5 -13 -26 -19 -48 -8 -30 -7
-45 4 -67 16 -30 21 -104 6 -95 -4 3 -6 -5 -4 -18 3 -13 -1 -27 -7 -31 -9 -5
-10 -1 -6 16 7 24 7 24 -8 -1 -14 -22 -15 -23 -16 -5 -1 20 -1 20 -15 1 -8
-11 -15 -14 -15 -8 0 14 -21 12 -32 -3 -4 -5 -8 1 -9 15 0 23 -1 24 -10 5 -8
-17 -9 -16 -4 6 8 44 -38 144 -66 144 -5 0 -14 7 -19 15 -9 13 -10 13 -10 0 0
-9 5 -21 12 -28 9 -9 5 -9 -16 0 -28 13 -29 20 -11 88 4 16 1 13 -9 -9 -25
-52 -20 -77 23 -120 22 -22 42 -50 45 -63 2 -13 3 0 2 29 l-3 52 19 -25 c13
-15 17 -32 13 -46 -5 -18 -4 -20 4 -8 6 8 11 11 11 6 0 -5 -11 -19 -24 -31
-21 -19 -25 -20 -35 -6 -6 9 -9 10 -6 4 3 -7 1 -13 -4 -13 -6 0 -11 5 -11 11
0 5 -4 8 -9 5 -5 -3 -11 4 -15 17 -3 12 -15 33 -27 45 -11 13 -19 25 -17 28 8
8 59 -46 53 -55 -3 -5 -1 -12 5 -16 6 -4 10 6 10 25 0 23 -7 35 -32 50 -18 11
-36 28 -40 37 -7 14 -7 13 -4 -4 5 -26 -3 -29 -23 -10 -11 10 -13 10 -7 0 4
-7 3 -13 -3 -13 -5 0 -12 12 -14 28 -3 22 -4 21 -6 -10 -1 -31 4 -39 32 -57
17 -11 28 -21 23 -21 -5 0 -24 11 -42 25 -23 17 -34 21 -37 12 -4 -9 -8 -8
-16 3 -6 8 -11 10 -11 5 0 -6 6 -17 13 -24 10 -11 9 -13 -3 -9 -8 3 -21 15
-27 29 -12 23 -13 23 -13 2 0 -33 10 -53 29 -54 10 0 12 -2 3 -6 -7 -3 -25 3
-40 13 -27 17 -27 17 -9 -3 14 -16 15 -23 6 -29 -7 -4 -20 2 -31 16 -13 16
-18 18 -18 6 0 -8 10 -25 23 -37 l22 -22 -22 6 c-13 3 -23 1 -23 -4 0 -5 6 -9
13 -10 9 0 9 -2 -1 -6 -7 -3 -23 3 -35 13 l-21 19 17 -27 c21 -34 21 -39 0
-31 -11 4 -14 3 -9 -6 5 -7 18 -16 30 -21 20 -8 20 -9 -3 -9 -14 -1 -37 11
-53 26 -15 15 -28 24 -28 20 0 -12 47 -57 76 -72 24 -12 25 -15 9 -15 -12 0
-27 6 -35 13 -8 6 -4 0 9 -15 20 -23 21 -28 8 -28 -9 0 -19 5 -22 10 -3 6 -11
10 -17 10 -20 0 14 -30 36 -31 19 -1 18 -2 -4 -8 l-24 -7 24 -17 c24 -17 24
-17 3 -17 -12 0 -25 5 -28 10 -3 6 -12 10 -18 10 -20 -1 34 -40 57 -41 19 -1
19 -2 -4 -9 -16 -5 -19 -8 -8 -9 9 -1 20 -6 24 -12 5 -8 -1 -10 -19 -7 -15 3
-24 1 -21 -3 9 -15 61 -10 74 6 11 13 10 14 -4 9 -12 -5 -15 -2 -10 10 3 9 11
16 18 16 7 0 6 4 -3 9 -10 6 -10 10 -1 16 16 10 62 -3 54 -16 -4 -6 -1 -15 7
-19 7 -5 14 -16 15 -25 10 -66 172 -143 276 -130 40 5 48 3 57 -14 14 -26 15
-52 1 -31 -9 13 -11 13 -20 0 -5 -8 -10 -21 -10 -27 0 -7 -5 -13 -10 -13 -7 0
-7 7 1 21 8 15 8 24 0 32 -8 8 -11 6 -11 -6 0 -9 -14 -31 -31 -49 -28 -29 -29
-30 -10 -4 22 30 27 56 12 56 -5 0 -14 -13 -21 -29 -6 -16 -18 -32 -27 -35
-10 -4 -8 2 6 20 23 29 27 44 11 44 -6 0 -16 -11 -22 -25 -15 -33 -30 -32 -18
1 16 40 12 41 -19 4 -33 -40 -52 -37 -21 3 34 43 22 43 -20 -1 -50 -52 -72
-56 -25 -5 45 49 35 57 -13 10 -21 -20 -43 -37 -50 -37 -6 0 8 19 31 41 31 31
35 37 15 25 -16 -9 -28 -12 -28 -7 0 6 8 15 18 20 9 6 13 11 9 11 -5 0 -29
-16 -54 -35 -25 -19 -51 -35 -57 -35 -6 0 -4 -5 4 -10 9 -6 10 -10 3 -10 -28
0 -19 19 28 54 83 64 79 74 -5 14 -21 -15 -48 -28 -60 -28 -18 0 -17 2 7 15
31 16 93 65 82 65 -4 0 -25 -13 -48 -29 -23 -16 -58 -31 -77 -34 l-35 -6 30
14 c27 13 28 14 7 15 -13 0 -32 -5 -43 -10 -13 -7 -19 -7 -19 0 0 5 20 15 45
21 25 6 48 16 51 21 4 6 -3 8 -17 3 -20 -5 -21 -4 -9 5 13 10 12 11 -3 6 -10
-3 -26 -6 -35 -7 -10 -1 -6 -4 8 -8 23 -7 22 -8 -13 -15 -49 -9 -59 -1 -93 82
-22 54 -28 88 -32 174 -3 67 -1 113 6 120 6 7 13 30 17 50 l7 38 -46 -25 c-26
-14 -59 -25 -74 -24 -21 0 -15 4 22 15 27 9 59 22 71 30 12 8 24 11 28 8 3 -3
12 7 21 23 23 46 97 130 139 158 20 14 53 36 73 50 42 29 126 61 209 80 67 16
268 12 273 -5z m137 -141 c-2 -17 -12 -41 -22 -53 -10 -11 -3 -8 15 8 30 28
45 55 22 41 -5 -3 -10 -2 -10 4 0 5 4 12 9 15 12 8 22 -20 14 -41 -6 -16 -5
-16 10 -4 24 19 21 -2 -3 -24 -20 -18 -21 -18 -14 1 6 16 3 15 -20 -6 -15 -14
-33 -34 -38 -45 -9 -17 -6 -16 17 5 28 25 28 25 -4 -22 -24 -37 -35 -69 -46
-135 l-15 -88 4 80 c3 60 2 74 -6 55 -5 -14 -8 -58 -6 -97 2 -40 2 -73 1 -73
-10 0 -28 55 -34 105 l-8 60 3 -65 c2 -49 11 -82 35 -135 18 -38 35 -65 38
-58 2 6 -3 26 -12 43 -9 18 -15 34 -12 36 6 6 35 -56 42 -90 3 -15 8 -27 10
-25 2 2 -5 45 -16 94 -10 50 -18 106 -17 125 1 33 1 33 5 5 2 -16 13 -74 23
-127 11 -53 20 -105 20 -115 0 -42 -23 -96 -56 -128 -41 -42 -66 -37 -30 6 43
50 44 144 2 218 -11 19 -14 21 -19 7 -4 -9 -12 -16 -18 -16 -7 0 -5 8 6 20 16
18 16 20 -3 52 -44 73 -45 164 -2 248 17 33 117 146 132 149 4 0 5 -13 3 -30z
m-1083 -238 c-10 -6 -6 -10 15 -16 58 -15 83 -15 77 0 -5 12 3 15 34 15 22 0
49 3 59 6 10 3 5 -2 -10 -11 -16 -9 -36 -15 -45 -13 -25 5 -56 -48 -42 -70 10
-15 10 -14 5 4 -3 13 -1 21 8 21 9 0 12 -13 11 -39 -1 -21 2 -36 6 -33 5 3 11
-5 13 -17 2 -13 3 -5 1 17 -4 62 11 22 34 -85 11 -52 24 -104 28 -115 5 -15 4
-17 -4 -10 -7 6 -21 44 -32 85 l-20 75 4 -65 c2 -36 7 -74 11 -85 6 -15 5 -17
-4 -9 -7 6 -17 42 -23 80 -17 114 -29 151 -60 183 -37 38 -118 57 -174 42 -21
-6 -40 -8 -43 -5 -3 2 5 7 17 11 12 3 22 9 22 14 0 5 -12 4 -26 -2 -23 -8 -25
-8 -15 5 15 18 38 23 111 24 34 1 50 -2 42 -7z m718 -66 c14 -8 21 -15 15 -15
-5 0 -3 -5 5 -10 10 -6 11 -10 3 -10 -7 0 -13 -7 -13 -16 0 -13 -7 -15 -32
-10 -25 5 -30 4 -21 -5 8 -8 47 -13 102 -13 81 -1 92 1 115 23 26 24 26 24 41
5 8 -10 14 -28 12 -38 -3 -23 -45 -56 -75 -59 -12 -1 -22 -5 -22 -9 0 -10 50
1 68 15 7 5 15 7 19 4 10 -11 -63 -37 -104 -38 -35 0 -36 -1 -14 -10 30 -12
104 11 138 43 13 12 23 16 23 10 0 -17 -73 -63 -111 -69 -49 -7 -90 4 -149 42
-38 25 -49 35 -35 36 19 1 19 2 1 6 -15 4 -16 7 -5 14 10 6 2 9 -24 9 -21 0
-36 -4 -33 -9 3 -4 -6 -13 -20 -20 -14 -6 -23 -15 -20 -20 3 -5 -1 -14 -9 -21
-8 -7 -15 -22 -14 -34 0 -21 0 -21 9 2 13 31 17 28 12 -8 -5 -35 -17 -38 -32
-11 -21 39 -12 77 25 110 20 17 46 31 58 32 l22 1 -23 6 -22 7 25 38 c28 40
46 45 85 22z m-825 -405 c8 -16 15 -44 16 -62 1 -30 2 -31 8 -8 6 20 9 12 13
-33 2 -32 10 -63 17 -70 11 -10 12 -8 8 8 -3 11 -8 36 -11 55 l-6 35 14 -37
c18 -45 61 -95 101 -115 16 -9 35 -22 43 -29 11 -12 10 -14 -10 -14 -19 0 -20
-2 -8 -11 12 -9 11 -10 -5 -6 -11 3 -29 8 -40 13 -18 7 -19 6 -5 -11 14 -17
14 -18 -10 -5 -14 7 -33 19 -42 28 -10 8 -18 11 -18 5 0 -12 39 -48 60 -56 13
-5 13 -6 0 -6 -20 -1 -79 35 -108 66 -53 58 -68 119 -51 213 7 39 14 70 15 70
2 0 10 -13 19 -30z m526 -39 c-11 -7 -9 -10 8 -16 17 -5 20 -10 11 -20 -7 -8
-9 -18 -6 -24 4 -5 -1 -16 -9 -24 -11 -12 -12 -17 -2 -20 8 -4 8 -8 2 -14 -5
-4 -10 -14 -10 -22 0 -8 -6 -16 -14 -19 -9 -3 -11 0 -6 8 5 9 4 11 -4 6 -9 -6
-9 -11 0 -22 9 -11 8 -15 -5 -20 -10 -4 -15 -13 -12 -20 3 -7 -1 -20 -9 -28
-8 -7 -11 -16 -8 -20 4 -3 0 -6 -7 -6 -7 0 -11 -3 -7 -6 3 -3 -6 -17 -20 -30
-14 -13 -21 -24 -14 -24 6 0 11 -4 11 -10 0 -5 -7 -6 -17 -3 -10 4 -14 2 -10
-4 4 -6 3 -13 -2 -15 -5 -1 -11 -10 -13 -18 -2 -8 -12 -21 -23 -28 l-20 -13
20 5 c19 6 19 5 3 -7 -10 -8 -14 -18 -10 -22 4 -5 -2 -5 -12 -1 -16 5 -17 4
-6 -9 19 -23 -14 -31 -42 -10 -15 11 -17 15 -5 11 45 -16 50 -16 24 -1 -16 9
-27 20 -25 24 16 39 166 316 180 330 9 11 14 21 11 25 -3 3 2 17 11 31 9 14
13 25 9 25 -12 0 20 20 32 20 6 0 4 -4 -4 -9z m17 -278 c-35 -37 -88 -123 -88
-142 0 -8 10 5 23 29 12 25 27 45 34 45 6 0 15 4 20 9 5 5 2 6 -5 1 -19 -11 0
24 25 48 16 14 20 15 20 2 0 -8 -3 -13 -5 -10 -7 7 -32 -15 -32 -27 0 -6 7 -5
15 2 8 7 15 9 15 5 0 -4 7 -1 17 6 15 13 15 12 2 -8 -8 -14 -16 -18 -20 -11
-10 15 -56 -69 -65 -117 -4 -22 -11 -42 -15 -45 -8 -6 11 -72 33 -114 9 -19 9
-19 -5 -6 -9 8 -20 31 -25 50 -7 24 -10 28 -11 13 -2 -34 15 -69 56 -115 21
-24 27 -34 13 -23 l-25 20 20 -24 c22 -25 82 -61 70 -41 -5 9 -1 10 16 5 22
-6 22 -5 -6 19 -16 14 -26 25 -21 26 5 0 0 10 -11 23 -24 26 -53 81 -53 99 1
7 8 0 17 -17 24 -45 49 -71 149 -146 80 -60 124 -104 124 -125 0 -3 -9 4 -20
17 -11 14 -19 18 -20 11 0 -8 -14 -3 -37 14 l-38 28 31 -35 c43 -46 54 -71 54
-116 0 -28 -3 -34 -10 -23 -8 13 -10 13 -10 -2 0 -22 -46 -75 -81 -93 -15 -8
-41 -15 -56 -16 -25 0 -26 -1 -8 -9 15 -6 7 -9 -31 -9 -34 -1 -56 4 -64 14
-11 13 -8 15 14 15 86 0 186 60 186 111 0 32 -29 74 -64 92 -55 29 -128 57
-135 53 -15 -9 -71 34 -98 75 -25 39 -28 52 -31 148 -3 104 -3 107 30 168 37
69 103 153 120 153 7 0 0 -12 -14 -27z m92 -61 c0 -4 -6 -14 -12 -22 -7 -8 -2
-6 11 5 l24 20 -16 -31 c-45 -87 -20 -155 83 -232 73 -55 90 -89 76 -148 l-7
-26 -32 26 c-18 15 -52 41 -76 59 -78 56 -100 77 -116 110 l-16 32 43 -41 c24
-22 64 -48 89 -58 46 -17 71 -37 82 -66 5 -13 6 -13 6 1 1 21 -36 59 -69 70
-14 6 -27 17 -27 25 0 10 6 13 16 8 35 -13 45 -15 26 -3 -11 7 -36 25 -55 40
-31 24 -36 25 -36 9 0 -10 3 -17 7 -15 3 3 15 -2 25 -10 15 -11 16 -14 4 -15
-13 0 -13 -1 0 -10 8 -5 10 -10 5 -10 -13 0 -60 44 -80 74 -37 56 -36 134 1
192 15 23 44 33 44 16z m-258 -216 c-33 -36 -94 -164 -72 -151 6 3 10 12 10
20 0 8 17 42 37 77 48 80 57 54 13 -35 -43 -88 -49 -159 -19 -223 12 -27 28
-61 35 -76 17 -36 -5 -29 -29 10 -9 15 -17 21 -17 14 0 -8 15 -29 34 -48 19
-19 31 -34 28 -34 -4 0 0 -5 8 -10 9 -6 10 -10 3 -10 -7 0 -16 7 -21 16 -5 8
-16 16 -25 18 -25 3 -86 66 -104 106 -11 26 -14 59 -10 126 4 81 8 98 37 150
19 32 50 76 69 98 l36 39 3 -32 c2 -22 -3 -40 -16 -55z m-551 -36 c83 -23 189
-157 189 -237 0 -59 -11 -104 -23 -96 -6 3 -7 1 -3 -5 4 -7 -2 -45 -14 -86
-15 -56 -18 -80 -10 -100 11 -30 51 -52 77 -42 16 7 16 9 -6 20 -16 9 -25 23
-26 44 -2 18 0 30 4 28 3 -3 7 14 7 37 0 27 4 41 12 39 7 -1 12 2 12 8 0 5 -6
10 -12 11 -10 0 -10 2 0 6 6 2 10 9 6 14 -5 9 19 13 28 4 2 -3 1 -33 -3 -67
-7 -59 1 -141 17 -182 7 -17 5 -17 -23 -2 -17 8 -41 17 -54 20 -61 11 -78 33
-80 104 l-2 37 -7 -35 c-6 -31 -8 -32 -9 -8 -2 40 -19 44 -24 6 -3 -18 -4 -6
-2 27 3 71 49 250 57 220 5 -19 6 -18 16 5 10 24 11 24 12 -10 1 -28 3 -31 10
-15 6 17 8 14 12 -15 4 -30 5 -29 6 13 2 47 -21 102 -38 92 -4 -3 -10 4 -13
14 -8 31 -133 113 -181 118 -24 3 -46 1 -50 -5 -4 -6 3 -8 16 -5 21 4 21 3 -4
-13 -41 -27 -49 -73 -22 -129 13 -28 21 -33 46 -33 27 1 29 4 26 29 -3 15 -1
26 4 23 12 -8 10 -58 -4 -72 -14 -14 -62 -16 -87 -2 -21 11 -51 79 -51 113 0
12 9 41 20 65 29 63 88 85 171 62z m565 -76 c-5 -18 -3 -24 5 -19 8 5 9 1 4
-15 -12 -37 -7 -117 9 -147 19 -37 65 -79 96 -87 23 -6 23 -6 5 5 -30 18 -75
61 -87 84 -10 18 -9 18 10 -2 55 -56 95 -77 181 -94 79 -16 102 -17 90 -4 -6
6 -46 13 -76 14 -38 1 -26 16 24 29 42 12 49 11 60 -4 45 -62 -55 -116 -162
-88 -27 6 -55 10 -62 7 -7 -3 -32 6 -56 20 -36 22 -46 35 -60 78 -21 64 -22
130 -2 197 16 53 33 74 21 26z"/>
<path d="M1150 3485 c0 -14 -5 -25 -11 -25 -6 0 -9 9 -6 20 3 11 1 17 -4 14
-12 -7 -8 -46 6 -57 6 -4 4 -11 -7 -17 -10 -6 -14 -18 -11 -30 3 -11 0 -20 -6
-20 -7 0 -9 -9 -5 -24 4 -17 1 -27 -11 -34 -12 -6 -14 -11 -6 -16 18 -12 14
-39 -5 -32 -14 5 -15 4 -5 -8 8 -10 9 -16 1 -21 -13 -8 -32 4 -25 16 4 5 1 9
-5 9 -7 0 -9 -7 -6 -16 3 -9 6 -20 6 -25 0 -6 5 -7 10 -4 6 3 10 -3 10 -14 0
-12 -5 -21 -10 -21 -6 0 -8 -11 -6 -25 3 -14 0 -25 -6 -25 -5 0 -7 -7 -4 -16
4 -10 -1 -22 -11 -31 -10 -8 -12 -12 -5 -8 6 3 12 2 12 -4 0 -6 9 -15 20 -21
19 -10 20 -8 16 14 -3 15 -1 26 3 26 4 0 9 21 11 48 1 26 4 57 5 69 1 11 9 33
19 47 9 15 18 44 21 65 2 21 8 47 14 57 17 32 41 116 35 125 -11 19 -34 8 -34
-16z"/>
<path d="M1031 2992 c0 -33 -1 -63 -2 -68 -1 -5 0 -11 1 -14 5 -14 7 -56 2
-64 -7 -12 -7 -59 -1 -72 6 -11 4 -72 -3 -79 -5 -5 8 -118 18 -147 3 -11 0
-18 -7 -18 -8 0 -6 -7 6 -20 9 -10 15 -26 12 -34 -4 -9 -2 -18 3 -21 6 -4 10
-16 10 -29 0 -12 3 -26 7 -30 4 -3 8 -14 9 -24 7 -48 21 -86 32 -90 15 -5 15
8 1 45 -6 15 -13 37 -15 48 -2 11 -8 40 -14 64 -6 24 -9 50 -6 58 3 7 2 13 -2
13 -4 0 -7 21 -7 46 0 30 -5 48 -15 54 -11 7 -12 9 -1 10 11 0 11 3 0 17 -8 9
-9 14 -3 10 12 -7 14 161 1 181 -5 7 -4 12 3 12 6 0 8 5 5 10 -3 6 -1 10 6 10
8 0 6 6 -4 18 -13 14 -14 21 -5 30 9 9 7 16 -5 30 -18 20 -13 34 9 25 16 -6
19 22 4 32 -8 5 -8 11 0 20 9 10 7 16 -9 24 -29 16 -29 16 -30 -47z"/>
</g>
</svg>
